<?xml version="1.0" encoding="UTF-8"?>
<svg id="Layer_1" xmlns="http://www.w3.org/2000/svg" xmlns:xlink="http://www.w3.org/1999/xlink" version="1.1" viewBox="0 0 852.7 444.8">
  <!-- Generator: Adobe Illustrator 30.6.0, SVG Export Plug-In . SVG Version: 2.1.4 Build 109)  -->
  <defs>
    <style>
      .st0 {
        mask: url(#mask);
      }

      .st1 {
        fill: url(#linear-gradient2);
      }

      .st2 {
        fill: url(#linear-gradient1);
      }

      .st3 {
        fill: url(#linear-gradient9);
      }

      .st4 {
        fill: url(#linear-gradient3);
      }

      .st5 {
        fill: url(#linear-gradient6);
      }

      .st6 {
        fill: url(#linear-gradient8);
      }

      .st7 {
        fill: url(#linear-gradient7);
      }

      .st8 {
        fill: url(#linear-gradient5);
      }

      .st9 {
        fill: url(#linear-gradient4);
      }

      .st10 {
        fill: #d47706;
      }

      .st11 {
        fill: #eec21e;
      }

      .st12 {
        fill: url(#radial-gradient);
      }

      .st13 {
        fill: url(#linear-gradient);
      }

      .st14 {
        mask: url(#mask-2);
      }

      .st15 {
        mask: url(#mask-3);
      }

      .st16 {
        mask: url(#mask-1);
      }

      .st17 {
        fill: #fff;
      }

      .st18 {
        fill: #ce9e32;
      }

      .st19 {
        fill: #001a30;
      }

      .st20 {
        fill: url(#radial-gradient1);
      }

      .st21 {
        fill: url(#radial-gradient3);
      }

      .st22 {
        fill: url(#radial-gradient2);
      }

      .st23 {
        fill: url(#radial-gradient4);
      }
    </style>
    <radialGradient id="radial-gradient" cx="363.6" cy="210.8" fx="363.6" fy="210.8" r="456.2" gradientTransform="translate(0 146.9) scale(1 .3)" gradientUnits="userSpaceOnUse">
      <stop offset=".6" stop-color="#001a30"/>
      <stop offset=".8" stop-color="#426eae"/>
      <stop offset="1" stop-color="#fafeff"/>
    </radialGradient>
    <radialGradient id="radial-gradient1" cx="664.2" cy="193.2" fx="664.2" fy="193.2" r="117.9" gradientUnits="userSpaceOnUse">
      <stop offset=".2" stop-color="#001a30"/>
      <stop offset=".5" stop-color="#426eae"/>
      <stop offset=".8" stop-color="#fafeff"/>
    </radialGradient>
    <linearGradient id="linear-gradient" x1="654.2" y1="87.8" x2="685.6" y2="208.2" gradientUnits="userSpaceOnUse">
      <stop offset="0" stop-color="#fef078"/>
      <stop offset=".3" stop-color="#fef392"/>
      <stop offset="1" stop-color="#feface"/>
    </linearGradient>
    <linearGradient id="linear-gradient1" x1="657.6" y1="86.6" x2="682.4" y2="210.2" gradientUnits="userSpaceOnUse">
      <stop offset="0" stop-color="#f1a804"/>
      <stop offset=".3" stop-color="#d48e02"/>
      <stop offset=".3" stop-color="#d59103"/>
      <stop offset=".4" stop-color="#da9c0a"/>
      <stop offset=".4" stop-color="#e3ae14"/>
      <stop offset=".5" stop-color="#f0c822"/>
      <stop offset=".5" stop-color="#fde331"/>
      <stop offset=".7" stop-color="#f9ce23"/>
      <stop offset=".9" stop-color="#f1a206"/>
    </linearGradient>
    <radialGradient id="radial-gradient2" cx="672" cy="256.8" fx="672" fy="256.8" r="113" gradientTransform="translate(0 108.1) scale(1 .6)" gradientUnits="userSpaceOnUse">
      <stop offset="0" stop-color="#001a30"/>
      <stop offset=".5" stop-color="#426eae"/>
      <stop offset=".8" stop-color="#fafeff"/>
    </radialGradient>
    <linearGradient id="linear-gradient2" x1="668.2" y1="225.4" x2="668.2" y2="283.1" xlink:href="#linear-gradient"/>
    <linearGradient id="linear-gradient3" x1="668.2" y1="226.4" x2="668.2" y2="282" gradientUnits="userSpaceOnUse">
      <stop offset="0" stop-color="#f1a206"/>
      <stop offset=".4" stop-color="#f9ce23"/>
      <stop offset=".6" stop-color="#fde331"/>
      <stop offset=".6" stop-color="#f0c822"/>
      <stop offset=".6" stop-color="#e3ae14"/>
      <stop offset=".6" stop-color="#da9c0a"/>
      <stop offset=".6" stop-color="#d59103"/>
      <stop offset=".6" stop-color="#d48e02"/>
      <stop offset="1" stop-color="#f1a804"/>
    </linearGradient>
    <linearGradient id="linear-gradient4" x1="354.1" y1="88.3" x2="354.1" y2="176.8" xlink:href="#linear-gradient"/>
    <linearGradient id="linear-gradient5" x1="353.6" y1="89.4" x2="353.6" y2="175.7" xlink:href="#linear-gradient3"/>
    <radialGradient id="radial-gradient3" cx="414.2" cy="424.6" fx="414.2" fy="424.6" r="611.5" gradientTransform="translate(0 370.2) scale(1 .1)" gradientUnits="userSpaceOnUse">
      <stop offset="0" stop-color="#001a30"/>
      <stop offset=".5" stop-color="#426eae"/>
      <stop offset="1" stop-color="#fafeff"/>
    </radialGradient>
    <linearGradient id="linear-gradient6" x1="410.1" y1="367.1" x2="410.1" y2="435.7" xlink:href="#linear-gradient"/>
    <linearGradient id="linear-gradient7" x1="410.1" y1="366.9" x2="410.1" y2="437.5" gradientUnits="userSpaceOnUse">
      <stop offset="0" stop-color="#f9b615"/>
      <stop offset="0" stop-color="#f9b91c"/>
      <stop offset=".3" stop-color="#fbdd72"/>
      <stop offset=".4" stop-color="#fcf5a8"/>
      <stop offset=".5" stop-color="#fdfebe"/>
      <stop offset=".5" stop-color="#f9e896"/>
      <stop offset=".5" stop-color="#f6d675"/>
      <stop offset=".5" stop-color="#f4c85b"/>
      <stop offset=".5" stop-color="#f3be49"/>
      <stop offset=".6" stop-color="#f2b83e"/>
      <stop offset=".6" stop-color="#f2b73b"/>
      <stop offset="1" stop-color="#fcc137"/>
    </linearGradient>
    <radialGradient id="radial-gradient4" cx="361.2" cy="226.3" fx="361.2" fy="226.3" r="324.1" gradientTransform="translate(0 166.5) scale(1 .3)" gradientUnits="userSpaceOnUse">
      <stop offset=".4" stop-color="#001a30"/>
      <stop offset=".7" stop-color="#426eae"/>
      <stop offset=".9" stop-color="#fafeff"/>
    </radialGradient>
    <linearGradient id="linear-gradient8" x1="354.6" y1="192.3" x2="354.6" y2="281" xlink:href="#linear-gradient"/>
    <linearGradient id="linear-gradient9" x1="354.6" y1="193.3" x2="354.6" y2="280.1" xlink:href="#linear-gradient3"/>
    <filter id="luminosity-noclip" x="599.8" y="-8464" width="252.9" height="32766" color-interpolation-filters="sRGB" filterUnits="userSpaceOnUse">
      <feFlood flood-color="#fff" result="bg"/>
      <feBlend in="SourceGraphic" in2="bg"/>
    </filter>
    <mask id="mask" x="599.8" y="-8464" width="252.9" height="32766" maskUnits="userSpaceOnUse"/>
    <filter id="luminosity-noclip1" x="601" y="-8464" width="250.6" height="32766" color-interpolation-filters="sRGB" filterUnits="userSpaceOnUse">
      <feFlood flood-color="#fff" result="bg"/>
      <feBlend in="SourceGraphic" in2="bg"/>
    </filter>
    <mask id="mask-1" x="601" y="-8464" width="250.6" height="32766" maskUnits="userSpaceOnUse"/>
    <filter id="luminosity-noclip2" x="495.3" y="-8464" width="261.2" height="32766" color-interpolation-filters="sRGB" filterUnits="userSpaceOnUse">
      <feFlood flood-color="#fff" result="bg"/>
      <feBlend in="SourceGraphic" in2="bg"/>
    </filter>
    <mask id="mask-2" x="495.3" y="-8464" width="261.2" height="32766" maskUnits="userSpaceOnUse"/>
    <filter id="luminosity-noclip3" x="497.6" y="-8464" width="256.6" height="32766" color-interpolation-filters="sRGB" filterUnits="userSpaceOnUse">
      <feFlood flood-color="#fff" result="bg"/>
      <feBlend in="SourceGraphic" in2="bg"/>
    </filter>
    <mask id="mask-3" x="497.6" y="-8464" width="256.6" height="32766" maskUnits="userSpaceOnUse"/>
  </defs>
  <g>
    <g>
      <path class="st18" d="M.6,321.4c14.6-.5,37.7-1.1,52.5-1.4,15.4-.3,37.3-.7,52.5-.7,0,0,0,4.2,0,4.2-33.7-.3-71.2-1-104.9-2.1h0Z"/>
      <path class="st18" d="M24.1,329.9c26.3-.9,59.8-1.4,86.3-1.8,9.6-.1,19.2-.2,28.8-.3v4.2c-37-.3-78.1-1-115-2.1h0Z"/>
      <path class="st18" d="M820.9,321.4c-14.6.5-37.7,1.1-52.5,1.4-15.4.3-37.3.7-52.5.7,0,0,0-4.2,0-4.2,33.7.3,71.2,1,104.9,2.1h0Z"/>
      <path class="st18" d="M797.4,329.9c-26.3.9-59.8,1.4-86.3,1.8-9.6.1-19.2.2-28.8.3v-4.2c37,.3,78.1,1,115,2.1h0Z"/>
    </g>
    <g>
      <path class="st11" d="M0,418.9c14.6-.5,37.7-1.1,52.5-1.4,15.4-.3,37.3-.7,52.5-.7,0,0,0,4.2,0,4.2-33.7-.3-71.2-1-104.9-2.1h0Z"/>
      <path class="st11" d="M23.5,409.1c26.3-.9,59.8-1.4,86.3-1.8,9.6-.1,19.2-.2,28.8-.3v4.2c-37-.3-78.1-1-115-2.1h0Z"/>
      <path class="st11" d="M820.3,418.9c-14.6.5-37.7,1.1-52.5,1.4-15.4.3-37.3.7-52.5.7,0,0,0-4.2,0-4.2,33.7.3,71.2,1,104.9,2.1h0Z"/>
      <path class="st11" d="M796.8,409.1c-26.3.9-59.8,1.4-86.3,1.8-9.6.1-19.2.2-28.8.3v-4.2c37,.3,78.1,1,115,2.1h0Z"/>
      <path class="st11" d="M42.2,399.2c15.2-.5,39.3-1.1,54.7-1.4,16.1-.3,38.9-.7,54.7-.7,0,0,0,4.2,0,4.2-35.2-.3-74.3-1-109.5-2.1h0Z"/>
      <path class="st11" d="M778.1,399.2c-15.2.5-39.3,1.1-54.7,1.4-16.1.3-38.9.7-54.7.7,0,0,0-4.2,0-4.2,35.2.3,74.3,1,109.5,2.1h0Z"/>
    </g>
    <polygon class="st19" points="716.6 343.6 95.6 343.6 103.1 293.6 724.1 293.6 716.6 343.6"/>
    <path class="st12" d="M536.4,185.1l-11.7-35.3-10,35.3h-124.5l-1.2-13.6h-26.1l-8.8,13.6h-80.1l-7.2-26.9h-7.4l-7.3,26.9h-46.2l4.7-17.4c-12.4,15.3-28.4,17-47.5,17.4h-70.3s24.6-91,24.6-91l-7.5-13.9h87.2c13.3.4,22.3,4.3,27.6,11.7,1.9,2.7,3.3,5.9,4.1,9.5l5.8-21.2h79.1c9.1,0,15.8,3,20,8.9,7.8,10.9,3.3,27.9-.7,39.8v.2c-4.8,12.6-10.4,19.4-19.6,23.9l3.9,11.1,49.9-75.9-2.9-7.9h60.3l9.1,67.8,17.9-67.8h97.3l10.1,30.6,8.5-30.6h53.7l-12.6,16-24.3,89h-47.8ZM169.6,146.6c2.7,0,5-1.8,5.7-4.4l6.3-24.2h-21.7l-7.8,28.6h17.6ZM285.9,121.6c.8,0,1.5-.5,1.8-1.2v-.3c.1,0,.2-.3.2-.3.3-.5.5-1.2.7-1.7h-17l-1,3.5h15.3Z"/>
    <path class="st20" d="M669.8,218.3c-38.3,0-69.4-31.7-69.4-70.7s31.1-70.7,69.4-70.7,69.4,31.7,69.4,70.7-31.1,70.7-69.4,70.7Z"/>
    <path class="st19" d="M669.8,216.3c-37.2,0-67.4-30.8-67.4-68.7s30.2-68.7,67.4-68.7,67.4,30.8,67.4,68.7-30.2,68.7-67.4,68.7Z"/>
    <path class="st13" d="M669.8,210.3c-33.9,0-61.4-28.1-61.4-62.7s27.5-62.7,61.4-62.7,61.4,28.1,61.4,62.7-27.5,62.7-61.4,62.7ZM669.8,91c-30.5,0-55.4,25.4-55.4,56.7s24.9,56.7,55.4,56.7,55.4-25.4,55.4-56.7-24.9-56.7-55.4-56.7Z"/>
    <path class="st2" d="M669.8,209.3c-33.3,0-60.4-27.7-60.4-61.7s27.1-61.7,60.4-61.7,60.4,27.7,60.4,61.7-27.1,61.7-60.4,61.7ZM669.8,90c-31.1,0-56.4,25.9-56.4,57.7s25.3,57.7,56.4,57.7,56.4-25.9,56.4-57.7-25.3-57.7-56.4-57.7Z"/>
    <g>
      <polygon class="st17" points="668.8 151.8 657.3 167.1 639.3 160.9 650.3 176.5 638.8 191.8 657 186.2 668 201.8 668.3 182.7 686.6 177.1 668.5 170.9 668.8 151.8"/>
      <polygon class="st17" points="650.6 139.5 667.6 148.2 658.9 131.2 672.4 117.7 653.6 120.6 644.9 103.6 641.9 122.5 623.1 125.4 640.1 134.1 637 153 650.6 139.5"/>
      <polygon class="st17" points="706.7 144 715.6 127.2 698.5 135.6 685.2 121.8 687.9 140.7 670.7 149.1 689.5 152.4 692.2 171.3 701.1 154.5 719.9 157.8 706.7 144"/>
    </g>
    <g>
      <path class="st17" d="M114.6,304.1h9c1.8,0,3.4.3,4.7.9,1.3.6,2.3,1.4,3,2.5.7,1.1,1,2.4,1,4s0,1.5-.2,2.3c-.4,1.8-1.1,3.4-2.2,4.7-1.1,1.3-2.5,2.3-4.2,3s-3.6,1-5.7,1h-3l-2.1,10.6h-6l5.6-29ZM120.2,318.4c1.6,0,3-.5,4-1.4s1.7-2.2,2.1-3.9c0-.5.1-.9.1-1.3,0-2.2-1.3-3.2-3.8-3.2h-2.9l-1.9,9.9h2.4Z"/>
      <path class="st17" d="M139.9,304.1h6l-4.7,24.3h9.5l-.9,4.7h-15.5l5.6-29Z"/>
      <path class="st17" d="M157.3,331.6c-1.5-1.3-2.3-3.1-2.3-5.4s0-1.7.3-2.6l3.8-19.5h6l-3.9,20.1c-.1.6-.2,1.2-.2,1.8,0,1.1.3,1.9.8,2.4s1.4.8,2.5.8,2.8-.4,3.9-1.3c1-.9,1.7-2.2,2-3.9l3.8-19.7h6l-3.8,19.7c-1.2,6.5-5.3,9.7-12.1,9.7s-5.3-.6-6.8-1.9Z"/>
      <path class="st17" d="M187.8,304.1h9.3l.6,23.3,9.7-23.3h9.4l-5.6,29h-6l2.9-15.3,2.3-9.2h-.2l-10.9,24.5h-5.2l-1.4-24.5h-.3l-1.3,9.1-3,15.3h-6l5.6-29Z"/>
      <path class="st17" d="M225.1,304.1h10.6c1.7,0,3.1.3,4.3.8,1.2.5,2,1.3,2.6,2.2.6,1,.9,2.1.9,3.4s0,1.2-.2,1.8c-.3,1.5-.9,2.8-1.7,3.7-.9.9-2,1.5-3.4,1.9l-.5.2c1.5.2,2.6.8,3.4,1.7s1.2,2.2,1.2,3.7,0,1.3-.2,2c-.5,2.4-1.6,4.3-3.4,5.7-1.8,1.3-4.2,2-7.1,2h-11.9l5.6-29ZM231.1,328.7c1.4,0,2.6-.4,3.5-1.2.9-.8,1.5-2,1.8-3.4,0-.4,0-.7,0-1,0-1-.3-1.7-.9-2.2s-1.4-.7-2.5-.7h-5.3l-1.6,8.6h4.9ZM232.9,316.3c.7,0,1.5-.2,2.2-.5.7-.4,1.3-.9,1.8-1.5.5-.7.8-1.4,1-2.3,0-.3,0-.6,0-1,0-.8-.3-1.4-.8-1.8-.5-.4-1.3-.6-2.4-.6h-4.8l-1.5,7.8h4.3Z"/>
      <path class="st17" d="M252.7,304.1h5.9l-5.6,29h-5.9l5.6-29Z"/>
      <path class="st17" d="M289.7,304.1l-5.6,29h-8l-5-24-.7,6-3.5,17.9h-5.7l5.6-29h7.9l5,23.9.8-6.3,3.4-17.6h5.7Z"/>
      <path class="st17" d="M306.7,317.3h10.3l-3.1,15.8h-4.7l.6-4.3c-.4,1-1,1.8-1.8,2.6s-1.7,1.3-2.7,1.6-2.1.6-3.1.6c-3.1,0-5.3-.9-6.8-2.7-1.5-1.8-2.2-4.3-2.2-7.5s.2-3.3.5-5.2c.8-4.4,2.5-7.9,4.8-10.5,2.4-2.6,5.6-3.9,9.6-3.9s5.9.8,7.4,2.3c1.6,1.5,2.4,3.6,2.4,6.2l-5.2.7c0-1.1-.2-2-.5-2.7s-.8-1.2-1.4-1.5c-.7-.3-1.6-.5-2.7-.5-2.5,0-4.4,1-5.8,2.9-1.4,2-2.3,4.6-3,7.8-.3,1.7-.5,3.3-.5,4.5s.3,3,1,4c.7,1,1.8,1.4,3.3,1.4s2.8-.4,3.9-1.3c1.1-.9,2-2.1,2.6-3.6.3-.8.6-1.6.8-2.5h-4.7l.8-4Z"/>
      <path class="st17" d="M351.8,326.9l1.1,1.5,3.3,4.7h-6.2c-.5-.8-1.1-1.7-1.8-2.7-1.5,1.2-2.8,2-4.2,2.5-1.3.5-2.7.7-4.2.7s-3-.3-4.2-.8-2.1-1.3-2.7-2.3c-.6-1-1-2.1-1-3.4s0-.6,0-.9c.2-1.9.9-3.6,2.2-5.1,1.3-1.6,3-2.8,5.2-3.8-.6-1.1-1-2-1.3-2.8-.3-.8-.4-1.6-.4-2.4s0-.5,0-.9c.1-1.4.5-2.7,1.3-3.8s1.8-2,3.1-2.6c1.3-.6,2.8-.9,4.5-.9s2.6.2,3.7.7c1,.5,1.8,1.1,2.4,2,.5.8.8,1.8.8,3s0,.4,0,.7c-.2,1.7-.8,3.3-2.1,4.8-1.2,1.5-3,2.8-5.2,3.8.8,1.2,1.8,2.7,3,4.6,1.2-1.5,2.6-3.3,4-5.5l5.4.3c-2.7,3.7-5,6.6-6.9,8.8ZM343,328.8c.9-.4,1.8-1,2.8-1.8-.1-.2-.2-.3-.3-.5-.1-.2-.2-.4-.4-.6-1.7-2.5-3-4.3-3.7-5.5-2.2,1.5-3.4,3.2-3.7,5.3,0,.1,0,.4,0,.6,0,.9.3,1.6.8,2.1.5.5,1.2.8,2.1.8s1.6-.2,2.5-.5ZM343,311.2c0,1.1.4,2.4,1.2,3.9,1.2-.7,2.1-1.5,2.8-2.3.7-.8,1.1-1.7,1.3-2.6,0-.2,0-.5,0-.7,0-.6-.2-1-.5-1.3s-.8-.5-1.5-.5-1.6.3-2.2.8c-.6.5-.9,1.3-1,2.2,0,0,0,.2,0,.4Z"/>
      <path class="st17" d="M378.8,304.1h7.9c3.7,0,6.5.9,8.5,2.7,1.9,1.8,2.9,4.5,2.9,7.9s-.2,2.7-.5,4.3c-.9,4.6-2.7,8-5.4,10.4s-6.4,3.6-10.8,3.6h-8.2l5.6-29ZM381.5,328.6c2.8,0,5-.9,6.8-2.6s3-4.3,3.6-7.8c.3-1.3.4-2.4.4-3.5,0-2-.5-3.5-1.5-4.5-1-1-2.5-1.5-4.6-1.5h-2.3l-3.9,20h1.6Z"/>
      <path class="st17" d="M422.3,318.5c-1.1,1.3-2.5,2.3-4.2,3l4.2,11.6h-6.2l-3.3-10.6h-3.3l-2,10.6h-6l5.6-29h9c1.8,0,3.4.3,4.7.9,1.3.6,2.3,1.4,3,2.5.7,1.1,1,2.4,1,4s0,1.5-.2,2.3c-.4,1.8-1.1,3.4-2.2,4.7ZM418.9,311.7c0-1.1-.3-1.9-.9-2.4-.6-.6-1.6-.8-2.9-.8h-2.9l-1.9,9.9h2.4c1.6,0,3-.5,4-1.4,1.1-.9,1.7-2.2,2.1-3.9,0-.4.1-.9.1-1.3Z"/>
      <path class="st17" d="M442.9,327.4h-8.7l-2.5,5.7h-6.2l13.6-29h7.7l2.3,29h-6l-.2-5.7ZM442.8,323.1l-.5-12.2v-2.5c.1,0,0,0,0,0l-.9,2.5-5.3,12.2h6.7Z"/>
      <path class="st17" d="M460.6,304.1h5.9l-5.6,29h-5.9l5.6-29Z"/>
      <path class="st17" d="M497.7,304.1l-5.6,29h-8l-5-24-.7,6-3.5,17.9h-5.7l5.6-29h7.9l5,23.9.8-6.3,3.4-17.6h5.7Z"/>
      <path class="st17" d="M514.3,330.7c-1.5-1.9-2.3-4.4-2.3-7.6s.2-3.1.5-4.9c.6-2.8,1.4-5.3,2.6-7.5s2.7-3.9,4.7-5.2c1.9-1.3,4.2-1.9,6.8-1.9s3.5.3,4.8,1c1.4.7,2.4,1.7,3.2,2.9.7,1.3,1.1,2.8,1.2,4.6l-5.2,1c0-1.6-.4-2.8-1-3.6-.7-.8-1.7-1.2-3.1-1.2-2.1,0-3.8.9-5.2,2.8-1.4,1.8-2.4,4.4-3.1,7.7-.3,1.6-.5,3.1-.5,4.4,0,1.8.3,3.3,1,4.2.7,1,1.7,1.5,3.1,1.5s2.8-.5,3.9-1.5,2.1-2.3,2.8-3.9l4.8,1.8c-1.1,2.7-2.7,4.7-4.7,6.1s-4.4,2.1-7.1,2.1-5.7-.9-7.2-2.8Z"/>
      <path class="st17" d="M543.4,304.1h6l-4.7,24.3h9.5l-.9,4.7h-15.5l5.6-29Z"/>
      <path class="st17" d="M564.5,304.1h16l-.9,4.7h-10l-1.5,7.5h8.8l-.9,4.7h-8.8l-1.5,7.5h10l-.9,4.7h-16l5.6-29Z"/>
      <path class="st17" d="M596.5,327.4h-8.7l-2.5,5.7h-6.2l13.6-29h7.7l2.3,29h-6l-.2-5.7ZM596.3,323.1l-.5-12.2v-2.5c.1,0,0,0,0,0l-.9,2.5-5.3,12.2h6.7Z"/>
      <path class="st17" d="M637,304.1l-5.6,29h-8l-5-24-.7,6-3.5,17.9h-5.7l5.6-29h7.9l5,23.9.8-6.3,3.4-17.6h5.7Z"/>
      <path class="st17" d="M645.4,304.1h5.9l-5.6,29h-5.9l5.6-29Z"/>
      <path class="st17" d="M682.4,304.1l-5.6,29h-8l-5-24-.7,6-3.5,17.9h-5.7l5.6-29h7.9l5,23.9.8-6.3,3.4-17.6h5.7Z"/>
      <path class="st17" d="M699.4,317.3h10.3l-3.1,15.8h-4.7l.6-4.3c-.4,1-1,1.8-1.8,2.6s-1.7,1.3-2.7,1.6-2.1.6-3.2.6c-3.1,0-5.3-.9-6.8-2.7-1.5-1.8-2.2-4.3-2.2-7.5s.2-3.3.5-5.2c.8-4.4,2.5-7.9,4.8-10.5,2.4-2.6,5.6-3.9,9.6-3.9s5.9.8,7.4,2.3c1.6,1.5,2.4,3.6,2.4,6.2l-5.2.7c0-1.1-.2-2-.5-2.7-.3-.7-.8-1.2-1.4-1.5-.7-.3-1.6-.5-2.7-.5-2.5,0-4.4,1-5.8,2.9-1.4,2-2.3,4.6-3,7.8-.3,1.7-.5,3.3-.5,4.5s.3,3,1,4,1.8,1.4,3.3,1.4,2.8-.4,3.9-1.3c1.1-.9,2-2.1,2.6-3.6.3-.8.6-1.6.8-2.5h-4.7l.8-4Z"/>
    </g>
    <path class="st19" d="M569,82.1l-9.9,35.5-11.7-35.5h-94.3l-20,76.1-10.2-76.1h-55.7l2.3,6.2-52.7,80.1-5.9-16.6c8.9-3.8,14.9-9.7,20.1-23.5v-.2c4-11.5,8.3-27.9,1-38-3.8-5.3-10-8-18.4-8h-77.6l-8.5,31.1c.5-8.7-1.1-15.2-4.6-20.2-4.9-6.9-13.4-10.5-26-10.9h-83.8s6.3,11.7,6.3,11.7l-24.1,89.3h67.7c22.7-.5,40.3-2.9,52.9-27.5l-7.5,27.5h42.1l7.3-26.9h10.5l7.2,26.9h77.5l8.8-13.6h29l1.2,13.6h121.2l11.3-40.2,13.3,40.2h44.8l24-87.9,10.3-13.1h-48ZM183.5,118.3l-6.3,24.4c-.9,3.5-4,5.9-7.6,5.9h-20.2l8.9-32.6h23.5c.8,0,1.2.4,1.4.7.2.3.5.8.3,1.5ZM289.7,120.7v.2c0,0-.2.2-.2.2-.6,1.5-2,2.5-3.7,2.5h-17.9l2.1-7.5h21c-.1,1.2-.7,3.2-1.4,4.6ZM382.3,137.9l5.2-8,.7,8h-5.9Z"/>
    <path class="st10" d="M325.9,128.1c6-17.8,9.4-38.1-11.7-38.1h-73l-24.3,89h29.6l7.3-26.9h19.7l7.2,26.9h33.3l-10.3-28.9c10.3-3.3,16.5-7,22.1-22.1ZM295.7,125.2c-1.5,3.8-5.2,6.4-9.3,6.4h-25.7l5.3-19.5h26c9.9,0,3.6,13.2,3.6,13.2ZM197.4,90.1h-73.6l2.7,4.9-22.7,84h59.7c26.3-.6,41.1-4.3,52.1-34.6,12-37.8,8.5-53.5-18.3-54.4ZM190,121.7l-6.3,24.4c-1.6,6.1-7.1,10.4-13.4,10.4h-28.1l12.2-44.6h28.1c5.1,0,8.8,4.8,7.5,9.7ZM605.6,90.1l-3.7,4.1-23.2,84.9h-35.9l-18.1-54.6-15.4,54.6h-29l24-89h39.4l16.5,50.1,13.9-50.1h31.5ZM491.8,90.1l-23.4,89h-33.5l23.4-89h33.5ZM376,90.1v2l-57.2,87h31.6l8.8-13.6h37.8l1.2,13.6h32l-11.9-89h-42.2ZM371.9,145.8l20.7-32,2.7,32h-23.4Z"/>
    <polygon class="st22" points="700.9 290.2 694.5 278.2 694.5 290.2 663.8 290.2 663.8 245.3 654.1 245.3 654.1 290.2 623.5 290.2 623.5 245.3 605.9 245.3 605.9 217.6 695.3 217.6 699.8 225.6 699.8 217.6 730.5 217.6 730.5 290.2 700.9 290.2"/>
    <polygon class="st19" points="701.8 219.6 701.8 233.2 694.1 219.6 668.4 219.6 665.8 219.6 607.9 219.6 607.9 243.3 625.5 243.3 625.5 288.2 652.1 288.2 652.1 243.3 665.8 243.3 665.8 288.2 692.5 288.2 692.5 270.3 702.1 288.2 728.5 288.2 728.5 219.6 701.8 219.6"/>
    <path class="st1" d="M613.9,225.6h48.5v11.7h-16.3v44.8h-14.7v-44.8h-17.6v-11.7ZM707.8,225.6v30.5l-17.2-30.5h-18.8v56.6h14.7v-35.7l19.2,35.7h16.8v-56.6h-14.7Z"/>
    <path class="st4" d="M706.3,281.2l-18.9-35.2-1.9.5v34.7h-12.7v-54.6h17.2l18.8,33.3v-33.3h12.7v54.6h-15.2ZM632.5,281.2v-44.8h-17.6v-9.7h46.5v9.7h-16.3v44.8h-12.7Z"/>
    <path class="st9" d="M325.3,126.2c6-17.8,9.4-38.1-11.7-38.1h-73l-24.3,89h29.6l7.3-26.9h19.7l7.2,26.9h33.3l-10.3-28.9c10.3-3.3,16.5-7,22.1-22.1ZM295.1,123.2c-1.5,3.8-5.2,6.4-9.3,6.4h-25.7l5.3-19.5h26c9.9,0,3.6,13.2,3.6,13.2ZM196.8,88.1h-73.6l2.7,4.9-22.7,84h59.7c26.3-.6,41.1-4.3,52.1-34.6,12-37.8,8.5-53.5-18.3-54.4ZM189.3,119.8l-6.3,24.4c-1.6,6.1-7.1,10.4-13.4,10.4h-28.1l12.2-44.6h28.1c5.1,0,8.8,4.8,7.5,9.7ZM605,88.1l-3.7,4.1-23.2,84.9h-35.9l-18.1-54.6-15.4,54.6h-29l24-89h39.4l16.5,50.1,13.9-50.1h31.5ZM491.2,88.1l-23.4,89h-33.5l23.4-89h33.5ZM375.4,88.1v2l-57.2,87h31.6l8.8-13.6h37.8l1.2,13.6h32l-11.9-89h-42.2ZM371.3,143.9l20.7-32,2.7,32h-23.4Z"/>
    <path class="st8" d="M543,176l-19-57.3-16.1,57.3h-26.7l23.4-86.8h37.8l17.4,52.8,14.7-52.8h28.2l-2.2,2.4-23.1,84.3h-34.3ZM435.7,176l22.9-86.8h31.2l-22.9,86.8h-31.2ZM398.6,176l-1.2-13.6h-39.4l-8.8,13.6h-29l56.3-85.6v-1.2h40.1l11.6,86.8h-29.7ZM369.3,145h26.6l-3.1-36.4-23.5,36.4ZM281,176l-7.2-26.9h-21.4l-7.3,26.9h-27.3l23.7-86.8h72.2c5.9,0,10.2,1.7,12.6,5.1,4,5.6,3.4,15.9-1.9,31.5-5.3,14.1-10.9,18-21.4,21.4l-1.1.3,10.1,28.5h-30.9ZM258.7,130.7h27.2c4.5,0,8.7-2.8,10.3-7.1.1-.2,3.7-7.9,1.1-12.1-1.1-1.7-3-2.6-5.7-2.6h-26.9l-5.9,21.7ZM104.7,176l22.4-83.1-2-3.7h71.7c10.3.3,16.8,2.8,20.4,7.9,5.3,7.5,4.4,21.4-3.1,45.1-11.2,30.8-26.8,33.3-51.1,33.8h-58.3ZM140,155.7h29.5c6.8,0,12.8-4.6,14.5-11.2l6.3-24.4c.7-2.7.1-5.5-1.6-7.7-1.7-2.2-4.3-3.5-7-3.5h-28.9l-12.8,46.8Z"/>
    <path class="st21" d="M577.4,444.8c-3.4,0-7.1-.3-10.8-.8-8.8-1.2-15.1-4.6-18.5-10.1,0-.1-.2-.3-.2-.4-8.9,10.5-23.5,10.5-34.2,10.5s-16.4-3-20.9-8.4c-3.3-3.8-4.8-8.6-4.4-13.6h-23.2c-.2.6-.4,1.1-.6,1.6-4.2,11.3-12.6,17.4-26.5,19.1-4.6.6-9.2.8-14,.8s-6.6-.1-10.2-.4c-4.3-.3-8.5-1.5-12.2-3.4l-.8,3.3h-35.1l3.3-13.3h-6.9c0,0-3.5,13.3-3.5,13.3h-34l3.3-12.9-31.2.3,1.8-7.6h-22.4l-.5,1.8c-2.9,11.4-10.9,17.5-25.2,19-3.2.3-6.4.5-9.8.5-7.8,0-14.9-.9-21.7-1.8-2.3-.3-4.4-.9-6.4-1.9l-.6,2.5h-96.8l3.1-12.4h-30.5l6.5-29.5,37.2-42h37.8l-2.8,11c4.9-6.7,12.8-11,21.5-11h21.3c5.2,0,10.2,2.3,13.5,6.4,1.3,1.6,2.3,3.4,3,5.3l3.1-11.7h41.3c7.1,0,11.2,3.2,13.4,5.9,5.3,6.5,4.5,15.7,3.5,20.6v.2c-.5,2.4-1.3,4.6-2.4,6.8h26.4l29.1-33.4h40.6l-2.7,10.2,10.9-10.2h32.9l-.9,3.7c3.1-2.3,6.9-3.7,10.9-3.7h25.9c7.6,0,11.8,3.4,14,6.2,2.6,3.4,5.3,9.6,2.8,20.3v.2c-.5,2.2-1.2,4.4-2.2,6.5h22.8c1.6-5.2,3.5-9.9,5.4-14.1,8.8-19,24.1-19,34.1-19h30.3s-2.2,9.5-2.2,9.5c7.1-10.9,20.7-10.9,26.9-10.9h2.9c8.7,0,18.3.8,24.4,6.3l1.3-5h64.3l-1.9,4c7.8-4,16.8-4,23.1-4h28.9l-6.9,29.8h-4.3c3.9,3.8,5.9,9.4,4.8,15v.5c-2,10.3-3.8,20.1-9.4,28.1v.2c-8.6,11.2-22.6,11.2-35,11.2h-.5c-10.1,0-17.5-2.5-21.9-7.6-2.4-2.8-5.1-7.6-4.2-15.1.3-2.5.9-5.6,1.7-9.2l-18.3,30.9h-37.7l4.6-7.4c-6.3,5.9-16,9.1-28.1,9.1h0ZM614.3,401.3c2.8,5.5,2.4,12.8-1.3,22.3l20.5-33h-13.5c-.4,1.2-.8,2.4-1.2,3.6-1,2.7-2.5,5.1-4.4,7.2ZM213.7,412.4h0c0-.1,14.5-.1,14.5-.1l4.7-22.4h-1.9s-5.8,0-5.8,0c-2.1,9.3-6.3,16.9-17.9,22.5h6.3ZM416.3,412.2l4.7-22.4h-6.9s-5.6,22.4-5.6,22.4h7.8ZM159.2,399.2l3.3-.2c1.8-1.5,3.7-2.7,5.8-3.5.3-.1.5-.2.8-.3h-8.9l-1,4ZM370.2,399.2l6.6-.3,1.3-5.3h-6.5l-1.5,5.6ZM553.6,389.1c.5.5,1,1,1.5,1.6,0-.5.1-1.1.2-1.6h-1.7Z"/>
    <path class="st19" d="M714.2,387.1h9.8l6-25.8h-26.4c-7.9,0-19.8,0-28.1,7.9l3.7-7.9h-59.6l-1.9,7.2c-.5-.8-1.1-1.5-1.8-2.2-5.5-5.6-15-6.3-23.6-6.3h-2.9c-6.5,0-21.6,0-27.2,13.6-3.3,8.2-7.3,17.8-4.5,25.1-.4.3-.9.6-1.3,1-.5-5.8-4.5-10.8-10.2-12.6h9.8l6-25.8h-27.8c-10.2,0-24.1,0-32.3,17.8-2.3,5-4.2,10.2-5.7,15.3h-27.7c1.7-2.7,3-5.7,3.7-8.9v-.2c2.3-9.9,0-15.6-2.4-18.6-1.9-2.5-5.7-5.4-12.5-5.5h-25.9c-7.3,0-13.7,4.9-15.5,12l-.2.9,3.2-12.9h-29.5l-15.4,14.3,3.7-14.3h-37.1l-29.1,33.4h-30.7c1.8-2.8,3.2-5.9,3.9-9.2v-.2c.9-4.6,1.7-13.1-3-18.9-1.9-2.4-5.6-5.2-11.8-5.2h-39.8l-6,23.1c.3-2.1.4-4.4.4-6.8,0-3.8-1.1-7.7-3.5-10.6s-7.4-5.7-12-5.7h-21.3c-10.9,0-20.4,7.2-23.5,17.6l-4.2,14.4h19.4c-2.9,1.1-6.4,2.4-10.5,4.2-2.1.9-4.1,2.1-5.8,3.7l-6.7.3,10-40.1h-34.3l-36.3,41-5.8,26.5h30.6l-3.1,12.4h28.9l3.1-12.4h2.8l-3.1,12.4h60.9l.8-3.5,1.6.9c2,1.1,4.2,1.8,6.4,2.1s0,0,0,0c6.8.9,13.8,1.7,21.5,1.7h0c3.3,0,6.4-.2,9.6-.5,13.6-1.5,20.8-6.9,23.5-17.5l.8-3.4h26.5l-1.8,7.6,31.2-.3-3.3,12.9h29.9l3.4-13.2h7.8c0,0,6.8-26.9,6.8-26.9l-7.7.3,2.5-9.7h10.6l-12.4,49.5h31l1.1-4.3c4.1,2.6,8.8,4.1,13.7,4.5s6.8.4,10,.4h0c4.7,0,9.1-.3,13.7-.8,13-1.6,20.9-7.2,24.8-17.8.4-1,.7-2,1-2.9h27c0,.3,0,.5-.1.7-.8,5,.5,9.8,3.7,13.6,4.2,4.9,11.1,7.6,19.4,7.6s25.3,0,33.6-10.9h0c0-.1,0-.2,0-.2.3-.4.6-.9.9-1.3.4,1.1.9,2.2,1.6,3.3,3.1,5,8.9,8,17.1,9.1,3.7.5,7.2.7,10.6.7h0c15.8,0,27.1-5.5,31.8-15.5,5.5-11.5,6.4-19.9,3-25.8,0-.2-.2-.3-.3-.5,2.2-2.1,4-4.7,5.1-7.6.6-1.7,1.1-3.3,1.6-4.9h18.6l-32.6,52.6h33l24.9-42c-2.7,9.2-4.6,17.6-5.2,22.6-.9,6.8,1.5,11.1,3.7,13.5,4,4.6,10.9,6.9,20.4,6.9h.5c11.9,0,25.3,0,33.2-10.4v-.2c5.5-7.7,7.2-17.2,9.1-27.3v-.5c1.4-7.4-2.9-14.4-9.9-16.7ZM194,387.5c-.2.7-1.7,1.5-3.6,2.2l-.2-2.1c.2-.5,1.5-.6,2.2-.6s1.3,0,1.7,0c0,.1,0,.3-.1.5ZM251.1,389.1h-15.9l-5.1,24h17.9c-.4.7-1.1,1.1-1.9,1.1h-30.9c0,.1-18.7.1-18.7.1.4-.1,1.7-.6,1.7-.6,17.7-5.7,22.7-13.8,25.2-25.1,0-.3.1-.6.2-.9h30.3c0,1-1.9,1.2-3,1.2ZM438.6,389.1h-15.4l-5.1,24h17.4c-.4.7-1.1,1.1-1.9,1.1h-27.7l6.6-26.4h29c0,1-1.9,1.2-3,1.2ZM463.1,401.2c0-.1-.2-.2-.2-.3.1-.1.3-.2.4-.3l-.2.7ZM524.3,413.7c-.2,1-1.1,1.7-2.1,1.7h-1.3l.7-3.8c.2-1,1.1-1.7,2.1-1.7h1.4l-.8,3.9ZM582.1,415.8c-1.2.2-2.3.4-3.1.4s-.5,0-.6,0c0-.1,0-.3,0-.5.5-3,1.6-3,2.5-3h3.3c-.4,1.5-1,3-2.1,3.2ZM588.2,389.1c-.1.7-.7,1-1.2,1s-.1,0-.2,0h-.4c0,0,.5-3.3.5-3.3,0-.2.2-.4.5-.4h1.5l-.6,2.7ZM692,413.7c-.2,1-1.1,1.7-2.1,1.7h-1.3l.7-3.8c.2-1,1.1-1.7,2.1-1.7h1.4l-.8,3.9Z"/>
    <path class="st10" d="M149.5,409.3l10.1-40.5h-23.9l-33.4,37.8-3.9,17.7h30.9l-3.1,12.4h16.5l3.1-12.4h8.6l3.7-15.4-8.5.4ZM132.9,410.1l-16.8.8,23.6-27.3-6.8,26.6ZM344.2,368.8l-32.4,37.2-4.3,18,31.3-.3-3.3,13h17.5l3.4-13.2h7.8c0,0,3.7-14.6,3.7-14.6l-7.8.3,10.5-40.4h-26.6ZM342.4,410.1l-16.8.7,23.6-27.3-6.8,26.6ZM412.1,368.8l-16.8,67.9h-18.6l12.4-49.5h-10.1l1.7-7.1,12-11.2h19.5ZM179.4,422h30.2l-3.4,14.7h-48.4l5.6-22.1c1.1-4.5,4.3-8.2,8.6-10,4-1.7,9-3.7,12.9-5,7.6-2.5,14.1-3.6,15.5-8.9,1.4-5.3.7-8.1-7.4-8.1s-8.3,6.3-8.3,6.3h-15.9l2-6.7c2.3-7.9,9.5-13.3,17.7-13.3h21.3c5.3,0,9.6,4.3,9.5,9.6,0,3.3-.3,7.1-1,10.6-2,9.2-5.6,15.7-21.2,20.6-15.6,5-16.7,5.3-17.7,12.3ZM269.5,399.6l-5.9,3.2,5.5,1.9c2.3.8,3.6,3.2,3,5.6l-3.5,14c-1.9,7.5-6.3,11.7-18.3,13-12.1,1.3-22.8-.4-33.1-1.7l3.5-13.9h26.1c3.6,0,6.7-2.3,7.8-5.7l.7-2.4c.8-2.5-1.1-4.9-3.6-4.9h-13.5l2.5-12h11c5.7,0,9-3.2,9-7.2s-2.7-6.1-6.1-6.1h-22.9l3.8-14.6h35.1c12.6,0,9.3,15.8,9,17-1.2,5.9-5,10.9-10.2,13.7ZM456.9,399.6l-5.9,3.2,5.5,1.9c2.1.7,3.5,2.7,3.5,5,0,3.2-.5,7.9-2.4,12.9-2.5,6.8-7.3,12.4-19.9,13.9-10.9,1.3-20.7.8-30.1-.4l3.9-14.3h22.7c3.6,0,6.7-2.3,7.8-5.7l.7-2.4c.8-2.5-1.1-4.9-3.6-4.9h-13l2.5-12h10.5c5.7,0,9-3.2,9-7.2s-.7-3.2-1.8-4.3c-1.1-1.1-2.6-1.8-4.3-1.8h-21.4l1.8-7.1c1.1-4.4,5.1-7.5,9.7-7.5h25.9c13.6.1,9.3,15.8,9,17-1.2,5.9-5,10.9-10.2,13.7ZM281.5,402.3h23.9l-3,14.2h-23.7l2.8-14.2ZM470.1,402h25l-3.4,13.7h-24.9l3.3-13.7ZM666.7,382.7l-32,54h-18.8l32.6-52.6h-27.5l3.9-15.3h45.6l-3.7,13.8ZM530.9,382.7h21.3l3.2-13.8h-18.8c-11.1,0-21.5-.3-28.3,14.4-6.8,14.7-9.9,32.1-11.3,40.2-1.3,8.1,5.6,14.3,17.2,14.3s22.7-.4,28.8-8.5c4.1-6,6.4-15,8.2-24.9.8-4.6-2.1-9.1-6.7-10.1-11.1-2.5-19.1-1.2-24.7,3l2.1-7.6c1.1-4,4.8-6.8,9-6.8ZM524.3,405.4h2.6c3.2,0,5.5,2.9,4.9,6l-1.1,5.1c-.8,3.8-4.1,6.5-7.9,6.5h-2.5c-3.1,0-5.5-2.8-4.9-5.9l.9-5c.7-3.9,4.1-6.7,8-6.7ZM698.6,382.7h21.3l3.2-13.8h-18.8c-11.1,0-23.7.5-28.9,14-5.8,15.1-10.5,33.1-11.5,41.2-1.3,9.9,6.5,13.6,18.1,13.6s22.8,0,28.9-8c4.7-6.7,6.3-15.5,8.1-25.4.8-4.6-2.1-9.1-6.7-10.1-11.1-2.5-19.1-1.2-24.7,3l2.1-7.6c1.1-4,4.8-6.8,9-6.8ZM692,405.4h2.6c3.2,0,5.5,2.9,4.9,6l-1.1,5.1c-.8,3.8-4.1,6.5-7.9,6.5h-2.5c-3.1,0-5.5-2.8-4.9-5.9l.9-5c.7-3.9,4.1-6.7,8-6.7ZM593,367.5c-7.8,0-20.2-.7-24.5,9.9-6,14.9-7.6,21.7.7,25.4,0,0-9.8.2-13.1,10.4-3.3,10.2-6,22.1,12.1,24.5,18.1,2.5,31.6-1.7,36.2-11.4,5.1-10.8,8.1-23.3-4.6-23.9l3.2-1c4.1-1.3,7.4-4.4,8.9-8.4,1.4-3.9,2.9-9.1,3-13.9,0-9.6-9.4-11.4-21.8-11.4ZM583.9,423.3c-6.4,1.3-11.9.3-10.8-7,1.1-7.3,6.1-8.1,8.4-8.1h3.6c4.9,0,6,1.3,6,3.5s-.9,10.3-7.3,11.6ZM595.8,387l-1.1,5c-.8,3.7-4.4,6.2-8.2,5.6l-2.1-.3c-2.4-.4-4-2.6-3.6-5l.8-4.9c.5-3.1,3.2-5.4,6.4-5.4h3.8c2.6,0,4.6,2.4,4,5Z"/>
    <path class="st5" d="M148.8,407.7l10.1-40.5h-23.9l-33.4,37.8-3.9,17.7h30.9l-3.1,12.4h16.5l3.1-12.4h8.6l3.7-15.4-8.5.4ZM132.2,408.5l-16.8.8,23.6-27.3-6.8,26.6ZM343.6,367.2l-32.4,37.2-4.3,18,31.3-.3-3.3,13h17.5l3.4-13.2h7.8c0,0,3.7-14.6,3.7-14.6l-7.8.3,10.5-40.4h-26.6ZM341.8,408.5l-16.8.7,23.6-27.3-6.8,26.6ZM411.4,367.2l-16.8,67.9h-18.6l12.4-49.5h-10.1l1.7-7.1,12-11.2h19.5ZM178.8,420.4h30.2l-3.4,14.7h-48.4l5.6-22.1c1.1-4.5,4.3-8.2,8.6-10,4-1.7,9-3.7,12.9-5,7.6-2.5,14.1-3.6,15.5-8.9,1.4-5.3.7-8.1-7.4-8.1s-8.3,6.3-8.3,6.3h-15.9l2-6.7c2.3-7.9,9.5-13.3,17.7-13.3h21.3c5.3,0,9.6,4.3,9.5,9.6,0,3.3-.3,7.1-1,10.6-2,9.2-5.6,15.7-21.2,20.6-15.6,5-16.7,5.3-17.7,12.3ZM268.8,398l-5.9,3.2,5.5,1.9c2.3.8,3.6,3.2,3,5.6l-3.5,14c-1.9,7.5-6.3,11.7-18.3,13-12.1,1.3-22.8-.4-33.1-1.7l3.5-13.9h26.1c3.6,0,6.7-2.3,7.8-5.7l.7-2.4c.8-2.5-1.1-4.9-3.6-4.9h-13.5l2.5-12h11c5.7,0,9-3.2,9-7.2s-2.7-6.1-6.1-6.1h-22.9l3.8-14.6h35.1c12.6,0,9.3,15.8,9,17-1.2,5.9-5,10.9-10.2,13.7ZM456.3,398l-5.9,3.2,5.5,1.9c2.1.7,3.5,2.7,3.5,5,0,3.2-.5,7.9-2.4,12.9-2.5,6.8-7.3,12.4-19.9,13.9-10.9,1.3-20.7.8-30.1-.4l3.9-14.3h22.7c3.6,0,6.7-2.3,7.8-5.7l.7-2.4c.8-2.5-1.1-4.9-3.6-4.9h-13l2.5-12h10.5c5.7,0,9-3.2,9-7.2s-.7-3.2-1.8-4.3c-1.1-1.1-2.6-1.8-4.3-1.8h-21.4l1.8-7.1c1.1-4.4,5.1-7.5,9.7-7.5h25.9c13.6.1,9.3,15.8,9,17-1.2,5.9-5,10.9-10.2,13.7ZM280.9,400.7h23.9l-3,14.2h-23.7l2.8-14.2ZM469.5,400.4h25l-3.4,13.7h-24.9l3.3-13.7ZM666.1,381.1l-32,54h-18.8l32.6-52.6h-27.5l3.9-15.3h45.6l-3.7,13.8ZM530.3,381.1h21.3l3.2-13.8h-18.8c-11.1,0-21.5-.3-28.3,14.4-6.8,14.7-9.9,32.1-11.3,40.2-1.3,8.1,5.6,14.3,17.2,14.3s22.7-.4,28.8-8.5c4.1-6,6.4-15,8.2-24.9.8-4.6-2.1-9.1-6.7-10.1-11.1-2.5-19.1-1.2-24.7,3l2.1-7.6c1.1-4,4.8-6.8,9-6.8ZM523.7,403.8h2.6c3.2,0,5.5,2.9,4.9,6l-1.1,5.1c-.8,3.8-4.1,6.5-7.9,6.5h-2.5c-3.1,0-5.5-2.8-4.9-5.9l.9-5c.7-3.9,4.1-6.7,8-6.7ZM698,381.1h21.3l3.2-13.8h-18.8c-11.1,0-23.7.5-28.9,14-5.8,15.1-10.5,33.1-11.5,41.2-1.3,9.9,6.5,13.6,18.1,13.6s22.8,0,28.9-8c4.7-6.7,6.3-15.5,8.1-25.4.8-4.6-2.1-9.1-6.7-10.1-11.1-2.5-19.1-1.2-24.7,3l2.1-7.6c1.1-4,4.8-6.8,9-6.8ZM691.4,403.8h2.6c3.2,0,5.5,2.9,4.9,6l-1.1,5.1c-.8,3.8-4.1,6.5-7.9,6.5h-2.5c-3.1,0-5.5-2.8-4.9-5.9l.9-5c.7-3.9,4.1-6.7,8-6.7ZM592.4,365.9c-7.8,0-20.2-.7-24.5,9.9-6,14.9-7.6,21.7.7,25.4,0,0-9.8.2-13.1,10.4-3.3,10.2-6,22.1,12.1,24.5,18.1,2.5,31.6-1.7,36.2-11.4,5.1-10.8,8.1-23.3-4.6-23.9l3.2-1c4.1-1.3,7.4-4.4,8.9-8.4,1.4-3.9,2.9-9.1,3-13.9,0-9.6-9.4-11.4-21.8-11.4ZM583.3,421.7c-6.4,1.3-11.9.3-10.8-7,1.1-7.3,6.1-8.1,8.4-8.1h3.6c4.9,0,6,1.3,6,3.5s-.9,10.3-7.3,11.6ZM595.2,385.4l-1.1,5c-.8,3.7-4.4,6.2-8.2,5.6l-2.1-.3c-2.4-.4-4-2.6-3.6-5l.8-4.9c.5-3.1,3.2-5.4,6.4-5.4h3.8c2.6,0,4.6,2.4,4,5Z"/>
    <path class="st7" d="M577.4,435.8c-3,0-6.3-.2-9.6-.7-6.2-.8-10.1-2.8-12.1-5.9-2.9-4.6-1.1-11.3.8-17.3,3.1-9.4,11.8-9.7,12.2-9.7l.4-1.9c-7.2-3.2-6.4-8.8-.2-24.1,3.5-8.6,12.5-9.3,20.7-9.3h2.9c6.7,0,14.9.5,18.6,4.2,1.5,1.6,2.3,3.6,2.3,6.2,0,4.8-1.6,10.1-2.9,13.6-1.4,3.7-4.4,6.6-8.2,7.8l-3.2,1,.2,2c3.5.2,5.8,1.3,7.1,3.3,2.1,3.6,1,10.2-3.3,19.2-3.5,7.4-12.6,11.5-25.5,11.5h0ZM580.9,405.6c-2.4,0-8.2.9-9.4,8.9-.4,2.7,0,4.9,1.3,6.3,1.3,1.5,3.4,2.3,6.2,2.3s2.8-.2,4.5-.5c6.4-1.3,8.1-8.8,8.1-12.5s-3.6-4.5-7-4.5h-3.6ZM587.3,379.4c-3.7,0-6.8,2.6-7.4,6.3l-.8,4.9c-.2,1.4.1,2.8,1,4,.8,1.2,2.1,1.9,3.5,2.1l2.1.3c.4,0,.8,0,1.3,0,3.8,0,7.2-2.7,8.1-6.5l1.1-5c.3-1.5,0-3.1-1-4.3-1-1.2-2.4-1.9-4-1.9h-3.8ZM240.8,435.2c-7.2,0-14-.9-20.6-1.7-.8,0-1.6-.2-2.4-.3l3-12h25.3c4,0,7.5-2.6,8.7-6.4l.7-2.4c.5-1.5.2-3-.7-4.3s-2.3-2-3.9-2h-12.2l2.1-10h10.2c6,0,10-3.3,10-8.2s-3.2-7.1-7.1-7.1h-21.6l3.3-12.6h34.4c2.9,0,5,.9,6.4,2.6,3.1,3.7,2.1,10.4,1.6,13.1h0c-1.2,5.7-4.7,10.4-9.7,13.1l-7.9,4.3,7.6,2.7c1.8.6,2.9,2.5,2.4,4.4l-3.5,14c-1.7,6.6-5.2,10.9-17.4,12.3-2.9.3-5.8.5-8.8.5ZM681.3,435.1c-7.4,0-12.5-1.5-15.1-4.5-1.7-2-2.4-4.7-2-8,1-8,5.7-26,11.5-41,4.8-12.3,15.9-13.4,28-13.4h17.6l-2.7,11.8h-20.5c-4.6,0-8.7,3.1-10,7.6l-2.9,10.5,2.4-1.8c3.6-2.7,8.2-4,13.7-4s6.5.4,10.2,1.2c4.1.9,6.7,4.8,5.9,8.9v.5c-1.9,9.7-3.4,18.2-7.9,24.6-5.7,7.6-16.3,7.6-27.6,7.6h-.5ZM691.4,402.8c-4.4,0-8.2,3.2-9,7.5l-.9,5c-.3,1.8.2,3.5,1.3,4.9s2.8,2.2,4.6,2.2h2.5c4.3,0,8-3,8.9-7.2l1.1-5.1c.4-1.8,0-3.6-1.2-5-1.1-1.4-2.8-2.2-4.7-2.2h-2.6ZM513.6,435.1c-6.2,0-11.3-1.9-14.1-5.2-1.9-2.2-2.6-5-2.1-8,1-6.1,4-24.5,11.2-39.9,6.4-13.8,15.9-13.8,26-13.8h19s-2.7,11.8-2.7,11.8h-20.5c-4.6,0-8.7,3.1-10,7.6l-2.9,10.5,2.4-1.8c3.6-2.7,8.2-4,13.7-4s6.5.4,10.2,1.2c4.1.9,6.7,4.8,5.9,8.9-1.5,8.1-3.7,18.1-8.1,24.5-5.6,7.5-16,8.1-27.9,8.1ZM523.7,402.8c-4.4,0-8.2,3.2-9,7.5l-.9,5c-.3,1.8.2,3.5,1.3,4.9s2.8,2.1,4.6,2.1h2.5c4.3,0,8-3,8.9-7.2l1.1-5.1c.4-1.8,0-3.6-1.2-5-1.1-1.4-2.8-2.2-4.7-2.2h-2.6ZM424.1,434.6c-5,0-10-.3-15.8-1l3.4-12.4h21.9c4,0,7.5-2.6,8.7-6.4l.7-2.4c.5-1.5.2-3-.7-4.3-.9-1.2-2.3-2-3.9-2h-11.7l2.1-10h9.7c6,0,10-3.3,10-8.2s-.7-3.7-2.1-5c-1.3-1.3-3.1-2.1-5-2.1h-20.1l1.5-5.8c1-4,4.6-6.8,8.8-6.8h25.9c3.2,0,5.5,1,7,2.8,1.4,1.8,2.8,5.5,1.1,12.7,0,.1,0,.3,0,.3-1.2,5.6-4.7,10.3-9.7,13l-7.9,4.3,7.6,2.6c1.7.6,2.8,2.2,2.8,4,0,3-.5,7.7-2.3,12.6-2.1,5.7-6,11.7-19.1,13.3-4.3.5-8.5.8-12.9.8ZM617.1,434.1l32.6-52.6h-28l3.4-13.3h43.5l-3.3,12.5-31.7,53.4h-16.4ZM377.2,434.1l12.4-49.5h-10.1l1.3-5.6,11.5-10.7h17.8l-16.3,65.9h-16.6ZM336.3,434.1l3.3-13-31.4.3,3.9-16.5,31.9-36.6h24.8l-10.6,40.5,7.8-.3-3.2,12.5h-7.8c0,0-3.4,13.2-3.4,13.2h-15.5ZM322.7,410.3l19.9-.9,6.9-27.3-1.7-.9-25.1,29.1ZM158.5,434.1l5.3-20.9c1.1-4.2,4.1-7.7,8-9.4,5.3-2.2,9.7-3.9,12.8-4.9,1.1-.4,2.2-.7,3.2-1,6.2-1.9,11.6-3.5,12.9-8.6.6-2.4,1.1-5.1-.3-6.9-1.3-1.7-3.7-2.4-8-2.4-6.9,0-8.7,4.3-9.1,6.3h-13.8l1.6-5.4c2.2-7.4,9.1-12.6,16.8-12.6h21.3c2.3,0,4.4.9,6,2.5,1.6,1.6,2.5,3.8,2.5,6.1,0,3.9-.4,7.4-1,10.4-2,9.3-5.9,15.2-20.5,19.9l-.6.2c-15.1,4.8-16.7,5.3-17.8,12.9l-.2,1.1h30.1l-2.9,12.7h-46.4ZM126.8,434.1l3.1-12.4h-30.9l3.6-16.3,33-37.2h22.2l-10.1,40.5,8.5-.4-3.2,13.4h-8.6l-3.1,12.4h-14.5ZM113.2,410.3l19.9-.9,6.9-27.3-1.7-.9-25.1,29.1ZM279.3,413.9l2.4-12.2h21.8l-2.6,12.2h-21.7ZM467.5,413.1l2.8-11.7h23l-2.9,11.7h-22.9Z"/>
    <polygon class="st18" points="716.3 345.5 95.3 345.5 95.7 343.5 716.6 343.5 716.3 345.5"/>
    <path class="st23" d="M404,293.2c-8.6,0-17.5-.7-26.4-2.2-13.9-2.2-22.5-6.6-27.1-13.6-4.6-7-4.3-15.1-2.6-23.8-1.8,1.5-3.8,2.8-6.2,3.9l11.7,32.6h-51.1l-6.3-25.4h-9.5l-7.1,25.4h-47.2l10.2-37.6c-8.3,9.3-20.1,13.8-35.8,13.8h-29.6l-6.8,23.8h-48.3l24.9-90.6-9.2-14.4h90.6c10.2,0,17.9,2.7,23,7.9,2.3,2.4,4,5.3,5.1,8.6l1.2-4.6-4-11.9h89.2c4.5,0,8.8,1,12.5,3,6.2,3.2,9.8,8,10.9,14.6,2.5-3.3,5.3-6.2,8.7-8.9,11.7-9.4,27.6-10.6,40.1-10.6h17.2c22,0,34.9,3.9,41.6,12.7,1.7,2.2,2.9,4.7,3.7,7.4,2.4-4.6,5.8-8.4,10-11.3,6.9-4.9,15.8-6.8,30.8-6.8h69.2l-10.3,37.3h-23.9l3.9.6c10.9,1.9,14.7,8.3,16.1,13.3,1.4,5.1,0,26.9-10.3,38.6-10.5,12.1-28.9,14.7-38.9,15.2h-.2s-72.6,0-72.6,0l2.5-10.3c-1.9,1.6-4,3.1-6.4,4.5-9.5,5.7-25.3,8.9-43.3,8.9ZM410,220.8c-3,0-5.6,2-6.4,4.9l-7.3,28.5h19.4c2.9,0,5.4-1.9,6.3-4.6l9.1-28.8h-21ZM485.9,250.5c-6.1-1.9-10.3-4.9-12.9-9.3,0,0,0-.2-.1-.2-.9,3.3-1.8,6.5-2.7,9.5h15.7ZM204.9,229.7c.8,0,1.4-.3,1.9-.8,1.1-1.2,2.1-3.3,2.7-5.8h-20.2l-1.9,6.5h17.5ZM314.2,227.6c.9,0,1.8-.5,2.1-1.2.5-.9.8-2,1-3.3h-19.4l-1.3,4.5h17.5Z"/>
    <path class="st19" d="M584.8,187.2h-66.6c-14.5,0-23.1,1.9-29.6,6.5-5.3,3.7-9.1,8.8-11.3,15.2-.2.6-.4,1.2-.6,1.9-.2-4.9-1.4-9.6-4.5-13.5-6.3-8.3-18.6-12-40-12h-17.2c-12.2,0-27.6,1.2-38.9,10.1-4.8,3.8-8.5,8.2-11.6,13.6.4-7.9-1.9-14.7-10.1-19-3.4-1.8-7.4-2.7-11.6-2.7h-86.5l3.3,9.9-3.9,14.5c0-7.2-1.9-12.9-5.9-17.1-4.7-4.8-11.9-7.3-21.5-7.3h-86.9l7.7,12-24.5,89h44.1l6.8-23.8h31.1c20,0,33.5-7.6,41-23.3l-12.8,47.1h43.1l7.1-25.4h12.6l6.3,25.4h46.7l-11.4-31.6c5-2.2,8.8-4.9,12.2-9.6-2.9,11.5-4.5,21.4.7,29.4,4.2,6.5,12.4,10.5,25.8,12.7,8.8,1.4,17.6,2.1,26.1,2.1s0,0,0,0c17.7,0,33.1-3.1,42.3-8.6,4.6-2.7,8.1-5.7,11-9.1l-3.6,14.7h70.2c9.7-.5,27.4-3,37.5-14.6,9.6-11,11.1-32,9.9-36.7-1.2-4.4-4.7-10.1-14.4-11.8l-30.3-4.6h49.1l9.2-33.3ZM208.3,230.2c-.8.9-2.1,1.5-3.4,1.5h-20.2l3-10.5h23.4c0,0,.3,0,.5.3.1.2.2.4.2.6-.7,3.5-2,6.4-3.5,8.2ZM318.2,227.4c-.7,1.4-2.2,2.2-3.9,2.2h-20.1l2.4-8.5h23c.1,0,.1,0,.1,0-.1,2.6-.6,4.6-1.4,6.2ZM432.9,221.4l-9.1,28.8c-1.1,3.6-4.4,6-8.2,6h-19.4c-.9,0-1.4-.5-1.6-.8s-.6-.9-.4-1.7l7.3-28.5c1-3.8,4.4-6.4,8.3-6.4h21c.9,0,1.4.5,1.6.8s.6.9.3,1.8ZM512,252.5h-44.5c1.3-4.3,2.6-9.1,4.1-14.4l.9-3.4c0-.1,0-.2,0-.4.4,2.1,1,4.1,2.1,5.9,3.1,5.2,9,8.4,17.9,9.8,5.8.9,11.6,1.5,16.7,2.1,1.3.1,2.8.3,4.3.5-.5,0-1,0-1.5,0Z"/>
    <path class="st10" d="M250.2,214.2c.4-10.5-4.2-19.1-21.5-19.1h-75.9l3.2,5-23.1,83.9h31.7l6.8-23.8h35.6c15,0,31.1-4.4,38.3-26.6,2.1-6.5,4.6-12.6,4.8-19.5ZM218.3,225.1c-.9,4.4-2.5,8.3-4.9,11-2,2.2-4.9,3.5-7.9,3.5h-28.1s6.4-22.5,6.4-22.5h27.9c4.2,0,7.4,3.9,6.6,8ZM508.3,221.5c-.2,2.3,1.6,4.4,3.9,4.8l44.1,6.6c2.8.5,8.2,1.7,9.7,7.5.9,3.3-.7,22.2-8.6,31.2-8,9.1-22.9,12-33.2,12.5h-62.2l5.7-23.7h45c12.5,0,21.5,1.3,21.6-5.2,0-6.5-19.6-6.1-40.1-9.3-18.9-2.9-17.5-13.6-10.6-33.2,2-5.6,5.2-9.6,9.1-12.3,5.7-4,13.7-5.4,26.2-5.4h58.7l-5.9,21.3h-57.8c-2.9,0-5.3,2.2-5.5,5.1ZM352.2,197.2c-2.7-1.4-5.8-2.1-8.8-2.1h-78.1l1.2,3.7-23.3,85.3h30.7l7.1-25.4h21.8l6.3,25.4h33.5l-10.5-29.2c10.3-3.3,15.5-6.7,21.2-21.7,5.8-17.1,10.1-30.2-1.1-36ZM326.2,223.5c-.2,3.3-.8,6.2-2.1,8.6-1.8,3.4-5.4,5.5-9.2,5.5h-28l5.7-20.5h27.5c3.5,0,6.3,2.9,6.1,6.4ZM432.7,193.2h-17.2c-8.2,0-24.4.3-35.1,8.8-10.7,8.5-15.4,20.6-21.3,43.1-5.9,22.5-8.9,35.3,20.3,39.9,29.1,4.7,53.4.8,64.4-5.7,14.4-8.5,16.7-19.4,23.5-44.3,6.8-24.9,10-41.9-34.6-41.9ZM439.2,225.1l-9.1,28.8c-1.9,6.1-7.5,10.2-13.9,10.2h-19.4c-5.2,0-9-4.9-7.7-10l7.3-28.5c1.7-6.4,7.5-10.9,14.1-10.9h21c5.4,0,9.2,5.2,7.6,10.4Z"/>
    <path class="st6" d="M249.6,212.3c.4-10.5-4.2-19.1-21.5-19.1h-75.9l3.2,5-23.1,83.9h31.7l6.8-23.8h35.6c15,0,31.1-4.4,38.3-26.6,2.1-6.5,4.6-12.6,4.8-19.5ZM217.7,223.2c-.9,4.4-2.5,8.3-4.9,11-2,2.2-4.9,3.5-7.9,3.5h-28.1s6.4-22.5,6.4-22.5h27.9c4.2,0,7.4,3.9,6.6,8ZM507.7,219.6c-.2,2.3,1.6,4.4,3.9,4.8l44.1,6.6c2.8.5,8.2,1.7,9.7,7.5.9,3.3-.7,22.2-8.6,31.2-8,9.1-22.9,12-33.2,12.5h-62.2l5.7-23.7h45c12.5,0,21.5,1.3,21.6-5.2,0-6.5-19.6-6.1-40.1-9.3-18.9-2.9-17.5-13.6-10.6-33.2,2-5.6,5.2-9.6,9.1-12.3,5.7-4,13.7-5.4,26.2-5.4h58.7l-5.9,21.3h-57.8c-2.9,0-5.3,2.2-5.5,5.1ZM351.6,195.3c-2.7-1.4-5.8-2.1-8.8-2.1h-78.1l1.2,3.7-23.3,85.3h30.7l7.1-25.4h21.8l6.3,25.4h33.5l-10.5-29.2c10.3-3.3,15.5-6.7,21.2-21.7,5.8-17.1,10.1-30.2-1.1-36ZM325.6,221.5c-.2,3.3-.8,6.2-2.1,8.6-1.8,3.4-5.4,5.5-9.2,5.5h-28l5.7-20.5h27.5c3.5,0,6.3,2.9,6.1,6.4ZM432.1,191.2h-17.2c-8.2,0-24.4.3-35.1,8.8-10.7,8.5-15.4,20.6-21.3,43.1-5.9,22.5-8.9,35.3,20.3,39.9,29.1,4.7,53.4.8,64.4-5.7,14.4-8.5,16.7-19.4,23.5-44.3,6.8-24.9,10-41.9-34.6-41.9ZM438.6,223.2l-9.1,28.8c-1.9,6.1-7.5,10.2-13.9,10.2h-19.4c-5.2,0-9-4.9-7.7-10l7.3-28.5c1.7-6.4,7.5-10.9,14.1-10.9h21c5.4,0,9.2,5.2,7.6,10.4Z"/>
    <path class="st3" d="M404,284.2c-8.1,0-16.5-.7-25-2.1-11.2-1.8-17.9-4.9-21-9.6-4.3-6.6-1.7-16.5,1.6-29.1,5.8-22.1,10.4-34.1,20.9-42.6,10.8-8.6,27.4-8.6,34.5-8.6h17.2c18.7,0,29.7,2.9,34.5,9.2,5.3,6.9,3,17.3-.9,31.4l-.9,3.4c-6,22.3-8.8,32.4-22.1,40.3-8.1,4.8-22.6,7.6-38.7,7.6h0ZM410,211.8c-7.1,0-13.3,4.8-15.1,11.7l-7.3,28.5c-.7,2.7-.1,5.5,1.6,7.8s4.3,3.5,7.1,3.5h19.4c6.8,0,12.8-4.4,14.9-10.9l9.1-28.8c.9-2.8.4-5.7-1.3-8-1.7-2.3-4.4-3.7-7.3-3.7h-21ZM462.6,281.2l5.2-21.7h44.2c1.9,0,3.7,0,5.4,0,1.5,0,3,0,4.4,0,6.7,0,12.7-.5,12.8-6.3,0-5.6-10.3-6.7-24.6-8.3-5-.5-10.7-1.2-16.4-2-6.8-1.1-11-3.1-13-6.4-3.1-5.1-1.2-13.2,3.1-25.4,1.8-5,4.7-9,8.8-11.8,5.2-3.7,12.6-5.2,25.6-5.2h57.4l-5.3,19.3h-57c-3.4,0-6.2,2.6-6.5,6-.2,2.8,1.9,5.4,4.7,5.8l44.1,6.6c3.2.6,7.6,1.9,8.9,6.7.8,3.1-.8,21.6-8.4,30.3-8.7,9.9-25.6,11.8-32.5,12.2h-60.9ZM309.3,281.2l-6.3-25.4h-23.4l-7.1,25.4h-28.6l23-84.3-.9-2.7h76.8c3.1,0,6,.7,8.4,1.9,10.1,5.2,6.8,16.6.6,34.8-5.6,14.9-10.8,18-20.6,21.1l-1,.3,10.4,28.8h-31.3ZM284.9,236.6h29.3c4.3,0,8.2-2.3,10.1-6,1.3-2.5,2-5.4,2.2-9,.1-1.9-.6-3.8-1.9-5.2-1.4-1.4-3.3-2.3-5.2-2.3h-28.3l-6.3,22.5ZM133.6,281.2l22.9-83.1-2.5-3.9h74.1c7.6,0,13.2,1.7,16.5,5.2,2.9,3,4.2,7.2,3.9,12.9-.2,5.6-1.9,10.7-3.7,16.1-.3,1-.7,2.1-1,3.1-7.5,23.2-24.9,25.9-37.4,25.9h-36.4l-6.8,23.8h-29.7ZM175.5,238.7h29.4c3.3,0,6.5-1.4,8.6-3.8,2.4-2.7,4.2-6.7,5.1-11.5.5-2.3-.1-4.6-1.6-6.4-1.5-1.8-3.6-2.8-5.9-2.8h-28.6l-7,24.5Z"/>
  </g>
  <g>
    <g class="st0">
      <image width="1756" height="1856" transform="translate(599.8) scale(.1)" xlink:href="Drain Pros LOGO with phone-1.png"/>
    </g>
    <g class="st16">
      <image width="1740" height="1815" transform="translate(601 3) scale(.1)" xlink:href="Drain Pros LOGO with phone-2.png"/>
    </g>
  </g>
  <g>
    <g class="st14">
      <image width="1814" height="1817" transform="translate(495.3 56) scale(.1)" xlink:href="Drain Pros LOGO with phone-3.png"/>
    </g>
    <g class="st15">
      <image width="1782" height="1785" transform="translate(497.6 58.3) scale(.1)" xlink:href="Drain Pros LOGO with phone-4.png"/>
    </g>
  </g>
</svg>